inDegrees=no
num_controls=7
num_derivatives=13
num_iterations=132
num_multipliers=7
num_parameters=0
num_slacks=7
num_states=26
objective=0.496892
objective_accelerations=0.043279
objective_balance=0.003655
objective_effort=0.039703
objective_height=0.404744
objective_ligament=0.005511
solver_duration=1629.760838
status=Solve_Succeeded
success=true
DataType=double
version=3
OpenSimVersion=4.5
endheader
time	/jointset/ground_pelvis/pelvis_tilt/value	/jointset/ground_pelvis/pelvis_tx/value	/jointset/ground_pelvis/pelvis_ty/value	/jointset/hip_r/hip_flexion_r/value	/jointset/hip_r/hip_adduction_r/value	/jointset/hip_r/hip_rotation_r/value	/jointset/back/lumbar_extension/value	/jointset/patellofemoral_r/patellar_flexion_r/value	/jointset/knee_r/knee_flexion_r/value	/jointset/knee_r/knee_adduction_r/value	/jointset/knee_r/knee_rotation_r/value	/jointset/ankle_r/ankle_angle_r/value	/jointset/subtalar_r/subtalar_angle_r/value	/jointset/ground_pelvis/pelvis_tilt/speed	/jointset/ground_pelvis/pelvis_tx/speed	/jointset/ground_pelvis/pelvis_ty/speed	/jointset/hip_r/hip_flexion_r/speed	/jointset/hip_r/hip_adduction_r/speed	/jointset/hip_r/hip_rotation_r/speed	/jointset/back/lumbar_extension/speed	/jointset/patellofemoral_r/patellar_flexion_r/speed	/jointset/knee_r/knee_flexion_r/speed	/jointset/knee_r/knee_adduction_r/speed	/jointset/knee_r/knee_rotation_r/speed	/jointset/ankle_r/ankle_angle_r/speed	/jointset/subtalar_r/subtalar_angle_r/speed	/forceset/tau_hip_flexion_r	/forceset/tau_hip_adduction_r	/forceset/tau_hip_rotation_r	/forceset/tau_knee_flexion_r	/forceset/tau_ankle_angle_r	/forceset/tau_subtalar_angle_r	/forceset/tau_lumbar_extension	lambda_cid13_p0	lambda_cid14_p0	lambda_cid14_p1	lambda_cid14_p2	lambda_cid14_p3	lambda_cid14_p4	lambda_cid14_p5	/jointset/ground_pelvis/pelvis_tilt/accel	/jointset/ground_pelvis/pelvis_tx/accel	/jointset/ground_pelvis/pelvis_ty/accel	/jointset/hip_r/hip_flexion_r/accel	/jointset/hip_r/hip_adduction_r/accel	/jointset/hip_r/hip_rotation_r/accel	/jointset/back/lumbar_extension/accel	/jointset/patellofemoral_r/patellar_flexion_r/accel	/jointset/knee_r/knee_flexion_r/accel	/jointset/knee_r/knee_adduction_r/accel	/jointset/knee_r/knee_rotation_r/accel	/jointset/ankle_r/ankle_angle_r/accel	/jointset/subtalar_r/subtalar_angle_r/accel	gamma_cid13_p0	gamma_cid14_p0	gamma_cid14_p1	gamma_cid14_p2	gamma_cid14_p3	gamma_cid14_p4	gamma_cid14_p5
1	-0.2579806005786135	0.007329865090030102	0.6917692066685011	1.33653185358053	-0.2302762831161406	-0.08840378291093687	-0.4363255427605436	1.312052887609828	1.312052887609914	-0.09726479615506756	0.1744279919608403	0.4363097164517186	0.1145452651770793	-0.0002150308160226985	0.004160620529302132	0.01603249486790941	-0.04322313114084347	0.001672555681782933	-0.005499914563629514	0.001316532561318836	-0.05117059434131214	-0.051170594341307	0.006396414298025498	-0.0002158636472775971	-0.009275537904584409	-0.0007860258866707101	-0.251531515527183	0.01858740213125169	0.01249262084363848	-0.4923174418943629	0.0006010268932709858	0.007085933800932912	0.2803634935314547	-0.04567492598410337	-48.54983129503857	-6.546338284469985	2.786410372613268	16.34898202219812	-794.5085724951015	62.72987059767939	1.161827029968139	0.09045547173567391	1.635403275976195	-5.01545036090301	0.1403233299686798	-0.253973499566997	0.1429734568171638	-5.04908012832811	-5.04908012832817	0.9723287941934726	0.006618158963736854	-1.399676947795973	-0.3237654058742701	2.03458567454039e-09	9.879516201121933e-10	1.908636068033081e-08	2.155570684563373e-08	3.278869628926247e-09	-4.271690662220196e-09	2.636358338433081e-08
1.01	-0.2579256319725671	0.007376052800633438	0.692011084136699	1.335850094511591	-0.2302526212718059	-0.08847012424153282	-0.4363031768464877	1.3112891471411	1.311289147141166	-0.09715090141476629	0.1744258208190261	0.4361470350153551	0.1145210736473771	0.01117524833217136	0.00508523590351364	0.03233449116147957	-0.09309288609366723	0.003055433105189632	-0.007772815924688336	0.003289180902868976	-0.1015700331011066	-0.1015700331011034	0.01638275837888697	-0.0002123540411491511	-0.02325635877093562	-0.004057333722664695	-0.2524790870974041	0.01878845809056205	0.0124668138769057	-0.4911139938024713	-0.0007351856003291285	0.007208401120595074	0.2812205986369103	-0.04567589418205979	-48.97659552294666	-6.550431210669058	2.767139135530919	16.54420476748634	-794.644099635682	62.63030003647891	1.1226042854803	0.09471107453168777	1.626320437166411	-4.967367186504935	0.1366199154834503	-0.2146155549482455	0.2442901207215296	-5.03425655296722	-5.034256552967538	1.011822887771189	-0.001869739300652863	-1.396626852850054	-0.3295602155648314	3.726220572616472e-09	6.102371140057425e-09	3.947330209834808e-08	4.285377683847963e-08	-3.147779387635123e-09	-6.118069658055052e-09	5.564446070380579e-08
1.02	-0.2577577653893915	0.007431735965832454	0.6924157260940564	1.334670712068316	-0.2302152606598463	-0.08855932800585259	-0.4362571085294349	1.310021636124141	1.310021636124187	-0.09693713609910938	0.1744238673531266	0.4358446769309684	0.1144640196906943	0.02236456460977465	0.006059711448438032	0.04858539269979769	-0.1427478060078076	0.004412309206867069	-0.01007240130866405	0.006057013160321406	-0.1519247039873855	-0.1519247039873866	0.02637052936929602	-0.00017232846454304	-0.03721086750910109	-0.007358511282773149	-0.253426658667636	0.01898951404987489	0.01244100691016057	-0.4899105457105812	-0.002071398093927378	0.007330868440262524	0.2820777037423559	-0.04568271806554679	-49.41379961052935	-6.552493696342019	2.743136672204488	16.75981772201185	-794.9461208568414	62.55591764814697	1.121634455849992	0.1004275058782451	1.625184324925784	-4.97248335316633	0.135123065622828	-0.259310304150378	0.3020102399976128	-5.040126553625002	-5.040126553625512	0.9726141761029805	0.01392135305927118	-1.394414522158832	-0.3297393506971656	5.52960198169071e-09	8.287703934111368e-09	5.546732579924277e-08	6.226209919955656e-08	-3.824671151103716e-09	-1.048027320978939e-08	7.884124753503176e-08
1.03	-0.2574790978168023	0.007497448302818835	0.6929826254669733	1.332995843252998	-0.2301644477604927	-0.08867172352473919	-0.4361793189915831	1.308250631293815	1.308250631293845	-0.09662352513559169	0.1744224502084803	0.4354028285229982	0.1143738068904879	0.03332443535334117	0.007094632694035883	0.0647861251026645	-0.1921889986188938	0.005746932732787348	-0.01241321517298243	0.009643190734028681	-0.2022858175869272	-0.2022858175869513	0.03635258339148625	-0.0001104058996741067	-0.05116241081204097	-0.01068960728725436	-0.2540501407899088	0.0191277217927681	0.01246572508525923	-0.4888410841229931	-0.002851741765146398	0.007378876696216652	0.2827362011202461	-0.04569403223762541	-49.66612001492508	-6.560193529338984	2.726511562967938	16.81735571049176	-795.1118787368434	62.47485433199145	1.076488951549258	0.1068050533389304	1.616261180602691	-4.924390949169257	0.1321446279932181	-0.2224386846754222	0.4082659646552437	-5.03553856722572	-5.035538567228891	1.011142482004866	0.002453216295985839	-1.396065311364853	-0.3356074924891909	7.334123661285338e-09	1.044314808810518e-08	7.141652380914639e-08	8.16511384215338e-08	-4.442891922193778e-09	-1.486814844066558e-08	1.019759518102552e-07
1.04	-0.2570921664231898	0.00757386597614888	0.6937112808604459	1.330827671764747	-0.2301003860994972	-0.08880772153368831	-0.4360613987882752	1.305975728366672	1.305975728366687	-0.09621006533850737	0.1744216773911027	0.4348213564665977	0.1142501205768034	0.04401732881447772	0.008200778717170747	0.08093659681094102	-0.2414083405935613	0.007062061535370768	-0.01479289932141504	0.01408314625165311	-0.2527043233507483	-0.252704323350794	0.04634029608278883	-4.346301099425931e-05	-0.06513559719511244	-0.01405321397835899	-0.2546736229122001	0.01926592953566306	0.01249044326034808	-0.4877716225354071	-0.003632085436363063	0.00742688495217496	0.2833946984981188	-0.0457108834573921	-49.92897799459163	-6.565860972246077	2.705133156957304	16.89478841259335	-795.4462689425707	62.41888043553913	1.068238999364007	0.114672461385642	1.615132186007724	-4.928113225882577	0.1312241209554573	-0.2670843609732261	0.4727658287810401	-5.0516049864809	-5.051604986481087	0.9737459099254429	0.01492541782145487	-1.398743138185155	-0.3362414880218484	8.672333955829777e-09	1.335905867145045e-08	8.567500830277275e-08	9.87335058499042e-08	-7.301656754387912e-09	-1.674712424926132e-08	1.216626288959609e-07
1.05	-0.2565995263340108	0.007661729986266567	0.6946011024149695	1.328168466203824	-0.2300232910342008	-0.08896780494088417	-0.4358949077686557	1.303196557201807	1.303196557202775	-0.09569682237416872	0.1744216150061329	0.434100090708678	0.1140926312019173	0.05447486380941514	0.009386824091576968	0.09701027923740899	-0.2903878441542996	0.008351548498653424	-0.01723107272451253	0.01935128606779576	-0.3031184990996008	-0.3031184990995935	0.0563053477980805	3.064544332203369e-05	-0.07911660608836951	-0.0174509220887781	-0.2549863017286944	0.01933032676578003	0.01253404511093854	-0.4863250924114568	-0.004218415120658498	0.007466095967286588	0.283792272395944	-0.04572427551664987	-50.09527376264617	-6.55364359419174	2.675423108669498	16.8872567888285	-795.2409453414041	62.3407428396456	1.029140585057097	0.1227886175622602	1.600867314775679	-4.876126452895555	0.1270194055749005	-0.2332700464859116	0.5742723173597927	-5.034614303245719	-5.034614303237711	1.007447361905905	0.003632552529373543	-1.39763946602504	-0.3424450930744222	9.995972019591401e-09	1.629873383071295e-08	9.988065799901545e-08	1.157437897847244e-07	-1.023043858849154e-08	-1.854769695091082e-08	1.412415551319942e-07
1.06	-0.2560033849277828	0.007761898058547164	0.6956511370025197	1.325020814100949	-0.2299334594149597	-0.08915248732541184	-0.435671648499009	1.299913586192622	1.299913586194543	-0.09508401638076254	0.1744222895043654	0.4332390429215999	0.1139009828218225	0.06471759222429173	0.01066159114975235	0.1129792034162411	-0.3390976489840823	0.009609372324345028	-0.01971269478792616	0.02543679625709387	-0.3534642922147854	-0.3534642922147262	0.0662529018963668	0.0001039136293442882	-0.09309200302678901	-0.02088501502009617	-0.2552989805451893	0.01939472399589871	0.01257764696151948	-0.4848785622875076	-0.004804744804953518	0.007505306982401499	0.2841898462937686	-0.04725407182832978	-50.27208551845271	-6.539312669214718	2.640858466012867	16.89853657867753	-795.2047561686592	62.28741334819257	1.025277683351848	0.1324167981394696	1.59418053648055	-4.874173479691435	0.1248914934372478	-0.2757740930364599	0.6362399034121309	-5.037928459747322	-5.037928459747682	0.9702463865243658	0.01475736416264758	-1.397620747217649	-0.3435184522016388	1.099263434795849e-08	1.801305921888023e-08	1.070970677003709e-07	1.275560220270332e-07	-1.151570517203634e-08	-2.062601779011666e-08	1.517750304817182e-07
1.07	-0.2553058573060662	0.007875267154663477	0.6968602744328256	1.321387486680319	-0.2298312300448236	-0.08936235164167915	-0.4353835692767534	1.296127569349834	1.296127569350804	-0.09437195234472368	0.1744237452175112	0.4322382328873263	0.1136747725112827	0.07475235602763471	0.01202805281284097	0.1288240985198486	-0.3875120019848484	0.01082991405768222	-0.02226802191051706	0.03230721396300031	-0.4037193791629772	-0.4037193791629088	0.07615582543118757	0.0001853537099174445	-0.1070723015022079	-0.02436559186920612	-0.2552122001119519	0.0193882960231437	0.01264639936667492	-0.483235459441564	-0.005074059833105451	0.007509836975089093	0.284255528083351	-0.05299702006976711	-50.32050869698752	-6.516674986433427	2.603954517093853	16.82854182639213	-794.707325683197	62.21363514509581	0.9872435027201193	0.1411320016282495	1.576011805111873	-4.816687372386943	0.1196699626789786	-0.246580737277179	0.7316675695225815	-5.01634664358029	-5.016346643578709	0.9997088213945634	0.004591662022897847	-1.398581173697832	-0.3515745604685639	1.197190434997481e-08	1.966220642773393e-08	1.139417093168918e-07	1.390917621580382e-07	-1.271355073161523e-08	-2.271911246642656e-08	1.618273648268512e-07
1.08	-0.2545090484915373	0.008002775097657629	0.6982271343757296	1.317271691497258	-0.229716988367475	-0.08959800297225302	-0.4350229409043702	1.291839592071318	1.291839592071338	-0.09356098037645023	0.1744259661978667	0.4310975505130997	0.1134135069804113	0.08457383078676119	0.01348936052532079	0.1445237059358876	-0.4355912014703248	0.0120118337669001	-0.02487009764937897	0.03994662628261285	-0.4538563793601766	-0.4538563793600979	0.08603448834335327	0.0002569670712201888	-0.1210664710173797	-0.02789605908643148	-0.2551254196787169	0.01938186805039021	0.01271515177182237	-0.4815923565956214	-0.005343374861256866	0.007514366967779657	0.284321209872931	-0.0646552722312949	-50.37918328614513	-6.491560107382853	2.561775580576261	16.77543524651185	-794.3762132980759	62.16452673094743	0.9826198745085591	0.1513860080177077	1.565122998966832	-4.807142776633484	0.1171670886133875	-0.2851238162906663	0.7900388261533466	-5.014311109548832	-5.01431110954896	0.9653942619933509	0.01279202030856506	-1.400394955168237	-0.3534965258247201	1.262463401984065e-08	2.027278974185915e-08	1.151002583966226e-07	1.455211375808482e-07	-1.291715442088776e-08	-2.427619289452071e-08	1.637857639222015e-07
1.09	-0.2536150517122868	0.008145389001346082	0.6997501921154304	1.312676858005313	-0.2295911471359467	-0.08986009307486	-0.4345821514975317	1.287050945663036	1.287050945663242	-0.09265151133825664	0.1744289255871544	0.4298168550332013	0.1131166566817656	0.09419067587004205	0.01505112718732802	0.160055976959173	-0.4833082115669647	0.01314813180270333	-0.02755749297380117	0.04833589623355788	-0.5038407799296321	-0.503840779929591	0.09585272553082011	0.0003327332189024651	-0.1350747776479607	-0.03148418924388471	-0.254673228943931	0.01930348087235102	0.01280099554319059	-0.4797005631853399	-0.0053397279908019	0.007491379289869132	0.2840797641622246	-0.08413436485828833	-50.32161701595796	-6.455894674212897	2.515460650432522	16.63969381579391	-793.5657962110873	62.09240887468612	0.9459938360161286	0.1612254301723588	1.542494211170907	-4.743883313538072	0.1106436080718403	-0.2619722397885991	0.8820672518315196	-4.985688837536439	-4.985688837541964	0.9890548089301764	0.004680367873705964	-1.401373569978945	-0.3629634119440391	1.325251822965157e-08	2.080435189008112e-08	1.15826170000728e-07	1.515619852541217e-07	-1.304510927220221e-08	-2.579248962981585e-08	1.651283201181119e-07
